<svg width="93" height="18" viewBox="0 0 93 18" fill="none" xmlns="http://www.w3.org/2000/svg">
<path d="M8.09375 1.58252L6.0625 5.73877L1.46875 6.39502C0.65625 6.52002 0.34375 7.52002 0.9375 8.11377L4.21875 11.3325L3.4375 15.8638C3.3125 16.6763 4.1875 17.3013 4.90625 16.9263L9 14.77L13.0625 16.9263C13.7812 17.3013 14.6562 16.6763 14.5312 15.8638L13.75 11.3325L17.0312 8.11377C17.625 7.52002 17.3125 6.52002 16.5 6.39502L11.9375 5.73877L9.875 1.58252C9.53125 0.86377 8.46875 0.83252 8.09375 1.58252ZM26.7337 1.58252L24.7025 5.73877L20.1087 6.39502C19.2962 6.52002 18.9837 7.52002 19.5775 8.11377L22.8587 11.3325L22.0775 15.8638C21.9525 16.6763 22.8275 17.3013 23.5462 16.9263L27.64 14.77L31.7025 16.9263C32.4212 17.3013 33.2962 16.6763 33.1712 15.8638L32.39 11.3325L35.6712 8.11377C36.265 7.52002 35.9525 6.52002 35.14 6.39502L30.5775 5.73877L28.515 1.58252C28.1712 0.86377 27.1087 0.83252 26.7337 1.58252ZM45.3737 1.58252L43.3425 5.73877L38.7487 6.39502C37.9362 6.52002 37.6237 7.52002 38.2175 8.11377L41.4987 11.3325L40.7175 15.8638C40.5925 16.6763 41.4675 17.3013 42.1862 16.9263L46.28 14.77L50.3425 16.9263C51.0612 17.3013 51.9362 16.6763 51.8112 15.8638L51.03 11.3325L54.3112 8.11377C54.905 7.52002 54.5925 6.52002 53.78 6.39502L49.2175 5.73877L47.155 1.58252C46.8112 0.86377 45.7487 0.83252 45.3737 1.58252ZM64.0137 1.58252L61.9825 5.73877L57.3887 6.39502C56.5762 6.52002 56.2637 7.52002 56.8575 8.11377L60.1387 11.3325L59.3575 15.8638C59.2325 16.6763 60.1075 17.3013 60.8262 16.9263L64.92 14.77L68.9825 16.9263C69.7012 17.3013 70.5762 16.6763 70.4512 15.8638L69.67 11.3325L72.9512 8.11377C73.545 7.52002 73.2325 6.52002 72.42 6.39502L67.8575 5.73877L65.795 1.58252C65.4512 0.86377 64.3887 0.83252 64.0137 1.58252ZM82.6537 1.58252L80.6225 5.73877L76.0287 6.39502C75.2162 6.52002 74.9037 7.52002 75.4975 8.11377L78.7787 11.3325L77.9975 15.8638C77.8725 16.6763 78.7475 17.3013 79.4662 16.9263L83.56 14.77L87.6225 16.9263C88.3412 17.3013 89.2162 16.6763 89.0912 15.8638L88.31 11.3325L91.5912 8.11377C92.185 7.52002 91.8725 6.52002 91.06 6.39502L86.4975 5.73877L84.435 1.58252C84.0912 0.86377 83.0287 0.83252 82.6537 1.58252Z" fill="#E4BA22"/>
</svg>
